<?xml version="1.0" standalone="no"?>
<!DOCTYPE svg PUBLIC "-//W3C//DTD SVG 20010904//EN"
 "http://www.w3.org/TR/2001/REC-SVG-20010904/DTD/svg10.dtd">
<svg version="1.0" xmlns="http://www.w3.org/2000/svg"
 width="64.000000pt" height="64.000000pt" viewBox="0 0 64.000000 64.000000"
 preserveAspectRatio="xMidYMid meet">
<metadata>
Created by potrace 1.11, written by Peter Selinger 2001-2013
</metadata>
<g transform="translate(0.000000,64.000000) scale(0.100000,-0.100000)"
fill="#000000" stroke="none">
<path d="M309 610 c-1 -19 -1 -38 0 -42 0 -5 -3 -8 -9 -8 -5 0 -10 6 -10 13 0
9 -3 8 -9 -2 -6 -9 -11 -10 -15 -2 -9 14 -36 14 -36 0 0 -5 4 -8 9 -4 6 3 14
-3 20 -12 9 -16 12 -16 21 -3 5 8 10 12 11 8 1 -5 3 -12 4 -18 1 -5 3 -16 5
-22 1 -7 6 2 11 20 7 23 15 32 25 28 7 -3 14 -1 14 4 0 6 -7 10 -15 10 -8 0
-12 6 -9 14 3 8 1 23 -5 33 -9 15 -11 13 -12 -17z"/>
<path d="M103 514 c-3 -8 2 -23 11 -32 15 -15 17 -15 33 0 13 14 14 20 3 32
-16 20 -39 20 -47 0z"/>
<path d="M480 514 c-11 -12 -10 -18 3 -32 16 -15 18 -15 33 0 19 18 12 48 -9
48 -8 0 -20 -7 -27 -16z"/>
<path d="M256 464 l-38 -26 -24 23 c-28 26 -45 18 -21 -9 23 -25 22 -27 -18
-51 -30 -17 -35 -26 -36 -58 0 -21 -3 -32 -6 -25 -10 24 -23 0 -23 -42 0 -27
6 -48 15 -56 8 -7 15 -22 15 -35 0 -27 17 -42 103 -89 44 -25 67 -44 67 -56 0
-19 25 -34 41 -24 6 3 9 13 7 22 -3 12 17 28 67 56 93 51 105 63 105 102 0 26
4 32 15 28 12 -5 15 4 15 44 0 66 -18 77 -23 15 -3 -37 -4 -31 -5 25 -2 72 -2
73 -37 93 -19 12 -35 24 -35 27 0 3 10 16 22 29 16 18 18 23 6 23 -8 0 -23 -9
-33 -20 -18 -20 -18 -20 -63 5 -55 31 -67 31 -116 -1z m-139 -186 c-3 -8 -6
-5 -6 6 -1 11 2 17 5 13 3 -3 4 -12 1 -19z m108 -98 c0 -18 -16 -22 -35 -10
-13 9 -13 11 0 20 19 12 35 8 35 -10z m215 6 c0 -8 -5 -18 -11 -22 -14 -8 -33
11 -25 25 10 16 36 13 36 -3z"/>
</g>
</svg>
